<svg xmlns="http://www.w3.org/2000/svg" xmlns:xlink="http://www.w3.org/1999/xlink" width="35" height="35.002" viewBox="-3.999 0 47.998 48">
  <defs>
    <style>
      .cls-1 {
        fill-rule: evenodd;
      }
    </style>
    <clipPath id="clip-path">
      <rect width="40" height="48"/>
    </clipPath>
  </defs>
  <g clip-path="url(#clip-path)">
    <path id="Forma_1" data-name="Forma 1" class="cls-1" d="M9.691,12.034H30.3v3H9.691v-3Zm0,7.19H30.3v3H9.691v-3ZM39,0H1.028a1,1,0,0,0-1,1V34.322a2.522,2.522,0,0,0-.029.29A9.685,9.685,0,0,0,8.421,44.2l-0.029.022L38,48a2,2,0,0,0,2-2V1A1,1,0,0,0,39,0ZM35,42.205L15.177,30.571a0.5,0.5,0,0,0-.843.464v3.408c0,0.057,0,.111,0,0.169A4.672,4.672,0,0,1,9.67,39.29a4.514,4.514,0,0,1-4.646-4.508c0-.091.009-0.22,0-0.308V5H35V42.205Z"/>
  </g>
</svg>
