<svg xmlns="http://www.w3.org/2000/svg" width="34.998" height="34.998" viewBox="0 0 380 380">
  <defs>
    <style>
      .cls-1 {
        fill-rule: evenodd;
      }
    </style>
  </defs>
  <path id="Forma_1" data-name="Forma 1" class="cls-1" d="M190.5,0.5C85.732,0.5.5,85.734,0.5,190.5s85.232,190,190,190,190-85.232,190-190S295.267,0.5,190.5.5Zm79.9,316.893-8.188-14.084a5.322,5.322,0,0,0-4.587-2.635,5.3,5.3,0,0,0-5.106,3.939,5.271,5.271,0,0,0,.542,4.017l8.2,14.1a148.9,148.9,0,0,1-60.76,17.43V320.27a10,10,0,0,0-20,0v19.889a148.887,148.887,0,0,1-59.949-17l8.111-14.149a5.3,5.3,0,0,0-4.582-7.927,5.321,5.321,0,0,0-4.6,2.663l-8.1,14.133a151.219,151.219,0,0,1-45.447-43.908l17.188-9.923a10,10,0,0,0-10-17.319L55.9,256.663a148.932,148.932,0,0,1-15.284-60.41l16.33-.05a5.293,5.293,0,0,0-.018-10.585l-16.348.05A148.985,148.985,0,0,1,55.9,124.341l17.212,9.937a10,10,0,0,0,10-17.32l-17.188-9.923A151.2,151.2,0,0,1,110.6,63.613L118.786,77.7a5.217,5.217,0,0,0,1.935,1.929,5.344,5.344,0,0,0,5.3-.013,5.292,5.292,0,0,0,1.917-7.236l-8.2-14.1a148.913,148.913,0,0,1,60.76-17.43V60.734a10,10,0,1,0,20,0V40.845a148.882,148.882,0,0,1,59.947,17L252.335,72a5.3,5.3,0,0,0,1.959,7.224,5.212,5.212,0,0,0,2.624.7,5.311,5.311,0,0,0,4.6-2.661l8.1-14.135a151.191,151.191,0,0,1,45.449,43.909l-17.188,9.923a10,10,0,1,0,10,17.32l17.212-9.937a148.945,148.945,0,0,1,15.284,60.41l-16.33.05a5.292,5.292,0,0,0-5.275,5.308,5.291,5.291,0,0,0,5.291,5.278h0.017l16.333-.051A148.979,148.979,0,0,1,325.1,256.663l-17.212-9.936a10,10,0,0,0-10,17.319l17.188,9.923A151.251,151.251,0,0,1,270.4,317.393Zm-5.994-181.118-64.14,35.588a20.979,20.979,0,0,0-19.533,0l-64.141-35.588a12.56,12.56,0,1,0-12.187,21.966l65.443,36.311a21.043,21.043,0,0,0,41.3,0l65.443-36.311A12.56,12.56,0,0,0,264.406,136.275Z"/>
</svg>
