<svg width="35" height="35" viewBox="0 0 35 35" fill="none" xmlns="http://www.w3.org/2000/svg">
<path d="M17.5 26.3867C17.1227 26.3867 16.8164 26.693 16.8164 27.0703C16.8164 27.4477 17.1227 27.7539 17.5 27.7539C17.8773 27.7539 18.1836 27.4477 18.1836 27.0703C18.1836 26.693 17.8773 26.3867 17.5 26.3867Z" fill="black"/>
<path d="M32.0665 4.19521C30.3843 3.5177 28.1972 3.14453 25.9082 3.14453C23.6192 3.14453 21.4321 3.5177 19.7499 4.19521C18.7558 4.5956 17.9968 5.08491 17.5 5.63397C17.0032 5.08491 16.2442 4.59566 15.2501 4.19528C13.5679 3.5177 11.3808 3.14453 9.0918 3.14453C6.80278 3.14453 4.61569 3.5177 2.93351 4.19521C1.0418 4.95715 0 6.04064 0 7.24609V23.6523C0 24.8578 1.0418 25.9413 2.93351 26.7032C4.49805 27.3334 6.49947 27.6998 8.61328 27.748V27.7539C8.61328 30.0922 12.4338 31.8555 17.5 31.8555C22.5662 31.8555 26.3867 30.0922 26.3867 27.7539V27.748C28.5005 27.6998 30.502 27.3334 32.0665 26.7032C33.9582 25.9413 35 24.8578 35 23.6523V7.24609C35 6.04064 33.9582 4.95715 32.0665 4.19521ZM33.6328 19.5508C33.6328 20.1344 32.8369 20.8174 31.5557 21.3335C30.169 21.892 28.3073 22.2299 26.3867 22.2784V19.5508C26.3867 19.5488 26.3866 19.5468 26.3866 19.5449C28.5005 19.4967 30.5019 19.1303 32.0666 18.5001C32.6806 18.2528 33.2045 17.9714 33.6329 17.6631L33.6328 19.5508ZM16.8164 11.3477C16.8164 11.9312 16.0205 12.6143 14.7393 13.1303C13.2377 13.7352 11.1792 14.082 9.0918 14.082C7.00438 14.082 4.94594 13.7352 3.44429 13.1303C2.1631 12.6143 1.36719 11.9312 1.36719 11.3477V9.45998C1.7956 9.76828 2.31943 10.0496 2.93351 10.297C4.61569 10.9745 6.80278 11.3477 9.0918 11.3477C11.3808 11.3477 13.5679 10.9745 15.2501 10.297C15.8642 10.0496 16.388 9.76828 16.8164 9.45998V11.3477ZM2.93351 14.3985C4.61569 15.076 6.80278 15.4492 9.0918 15.4492C11.3808 15.4492 13.5679 15.076 15.2501 14.3985C15.8642 14.1512 16.388 13.8698 16.8164 13.5615V15.4613C15.0479 15.5212 13.352 15.8115 11.9802 16.2946C10.6043 16.7792 9.61427 17.4254 9.07587 18.1834C6.99392 18.1816 4.94211 17.8352 3.44429 17.2319C2.1631 16.7158 1.36719 16.0328 1.36719 15.4492V13.5615C1.7956 13.8698 2.31943 14.1512 2.93351 14.3985ZM1.36719 17.6631C1.7956 17.9714 2.31943 18.2528 2.93351 18.5001C4.49812 19.1302 6.49961 19.4966 8.61349 19.5449C8.61349 19.5469 8.61335 19.5489 8.61335 19.5508V22.2784C6.69266 22.2299 4.83103 21.892 3.44436 21.3335C2.1631 20.8174 1.36719 20.1344 1.36719 19.5508V17.6631ZM10.0528 19.2149C10.5594 18.0359 13.4835 16.8164 17.5 16.8164C21.5165 16.8164 24.4406 18.0359 24.9467 19.2136C24.9957 19.3285 25.0195 19.4387 25.0195 19.5508C25.0195 20.1518 24.2786 20.8194 23.0375 21.3365C21.5694 21.9483 19.6028 22.2852 17.5 22.2852C15.3972 22.2852 13.4306 21.9483 11.9625 21.3365C10.7214 20.8194 9.98047 20.1518 9.98047 19.5508C9.98047 19.4387 10.0043 19.3285 10.0528 19.2149ZM33.6328 15.4492C33.6328 16.0328 32.8369 16.7158 31.5557 17.2319C30.058 17.8352 28.0062 18.1816 25.9243 18.1834C25.3863 17.4258 24.3962 16.7793 23.0198 16.2946C21.648 15.8114 19.9521 15.5212 18.1836 15.4613V13.5615C18.612 13.8698 19.1358 14.1512 19.7499 14.3985C21.4321 15.076 23.6192 15.4492 25.9082 15.4492C28.1972 15.4492 30.3843 15.076 32.0665 14.3985C32.6806 14.1512 33.2044 13.8698 33.6328 13.5615V15.4492ZM33.6328 11.3477C33.6328 11.9312 32.8369 12.6143 31.5557 13.1303C30.0541 13.7352 27.9956 14.082 25.9082 14.082C23.8208 14.082 21.7623 13.7352 20.2607 13.1303C18.9795 12.6143 18.1836 11.9312 18.1836 11.3477V9.45998C18.612 9.76828 19.1358 10.0496 19.7499 10.297C21.4321 10.9745 23.6192 11.3477 25.9082 11.3477C28.1972 11.3477 30.3843 10.9745 32.0665 10.297C32.6806 10.0496 33.2044 9.76828 33.6328 9.45998V11.3477ZM20.2607 5.46342C21.7623 4.85857 23.8208 4.51172 25.9082 4.51172C27.9956 4.51172 30.0541 4.85857 31.5557 5.46342C32.8369 5.97946 33.6328 6.66251 33.6328 7.24609C33.6328 7.82968 32.8369 8.51272 31.5557 9.02877C30.0541 9.63361 27.9956 9.98047 25.9082 9.98047C23.8208 9.98047 21.7623 9.63361 20.2607 9.02877C18.9795 8.51272 18.1836 7.82968 18.1836 7.24609C18.1836 6.66251 18.9795 5.97946 20.2607 5.46342ZM3.44429 5.46342C4.94594 4.85857 7.00438 4.51172 9.0918 4.51172C11.1792 4.51172 13.2377 4.85857 14.7393 5.46342C16.0205 5.97946 16.8164 6.66251 16.8164 7.24609C16.8164 7.82968 16.0205 8.51272 14.7393 9.02877C13.2377 9.63361 11.1792 9.98047 9.0918 9.98047C7.00438 9.98047 4.94594 9.63361 3.44429 9.02877C2.1631 8.51272 1.36719 7.82968 1.36719 7.24609C1.36719 6.66251 2.1631 5.97946 3.44429 5.46342ZM3.44429 25.435C2.1631 24.919 1.36719 24.2359 1.36719 23.6523V21.7647C1.7956 22.073 2.31943 22.3543 2.93351 22.6017C4.49805 23.2318 6.49947 23.5982 8.61328 23.6465V26.38C6.69259 26.3314 4.83096 25.9936 3.44429 25.435ZM23.0375 29.5397C21.5694 30.1514 19.6028 30.4883 17.5 30.4883C15.3972 30.4883 13.4306 30.1514 11.9625 29.5397C10.7214 29.0225 9.98047 28.3549 9.98047 27.7539V25.9061C10.1353 26.0181 10.3064 26.1295 10.4962 26.2393C11.5577 26.8535 13.0021 27.3079 14.6732 27.5532C14.7069 27.5581 14.7403 27.5605 14.7734 27.5605C15.1069 27.5605 15.3989 27.316 15.4488 26.9761C15.5036 26.6026 15.2452 26.2553 14.8718 26.2005C11.6948 25.7341 9.98047 24.5396 9.98047 23.6523V21.7984C11.5277 22.9306 14.2589 23.6523 17.5 23.6523C20.7411 23.6523 23.4723 22.9306 25.0195 21.7984V23.6523C25.0195 24.5396 23.3052 25.7341 20.1282 26.2005C19.7547 26.2553 19.4963 26.6026 19.5512 26.9761C19.6011 27.3161 19.8931 27.5605 20.2266 27.5605C20.2597 27.5605 20.2932 27.5581 20.3268 27.5532C21.9978 27.3079 23.4422 26.8536 24.5038 26.2393C24.6935 26.1295 24.8647 26.0181 25.0195 25.9061V27.7539C25.0195 28.3549 24.2786 29.0225 23.0375 29.5397ZM31.5557 25.435C30.169 25.9935 28.3073 26.3314 26.3867 26.38V23.6464C28.5005 23.5981 30.502 23.2317 32.0665 22.6016C32.6806 22.3543 33.2044 22.0729 33.6328 21.7646V23.6523C33.6328 24.2359 32.8369 24.919 31.5557 25.435Z" fill="black"/>
</svg>
